<svg xmlns="http://www.w3.org/2000/svg" width="1200" height="380" viewBox="0 0 1200 380" role="img" aria-label="Huzaifa Khan, AI Engineer">
  <defs>
    <linearGradient id="bg" x1="0" y1="0" x2="1" y2="1">
      <stop offset="0" stop-color="#06101f"/><stop offset="0.52" stop-color="#0b1330"/><stop offset="1" stop-color="#160a2c"/>
    </linearGradient>
    <linearGradient id="neon" x1="0" y1="0" x2="1" y2="0">
      <stop stop-color="#00e5ff"/><stop offset="0.55" stop-color="#896dff"/><stop offset="1" stop-color="#ff4dba"/>
    </linearGradient>
    <radialGradient id="glow"><stop stop-color="#00e5ff" stop-opacity=".24"/><stop offset="1" stop-color="#00e5ff" stop-opacity="0"/></radialGradient>
    <filter id="blur"><feGaussianBlur stdDeviation="24"/></filter>
    <pattern id="grid" width="40" height="40" patternUnits="userSpaceOnUse"><path d="M40 0H0v40" fill="none" stroke="#7583b8" stroke-opacity=".10"/></pattern>
  </defs>
  <rect width="1200" height="380" rx="22" fill="url(#bg)"/>
  <rect width="1200" height="380" rx="22" fill="url(#grid)"/>
  <circle cx="160" cy="190" r="170" fill="url(#glow)" filter="url(#blur)"/>
  <circle cx="1040" cy="170" r="170" fill="#b56cff" opacity=".12" filter="url(#blur)"/>
  <rect x="24" y="24" width="1152" height="332" rx="16" fill="none" stroke="url(#neon)" stroke-width="2" opacity=".8"/>
  <circle cx="51" cy="51" r="5" fill="#ff5f57"/><circle cx="70" cy="51" r="5" fill="#febc2e"/><circle cx="89" cy="51" r="5" fill="#28c840"/>
  <text x="1120" y="56" text-anchor="end" fill="#64749d" font-family="monospace" font-size="14">HUZAIFA://PROFILE</text>
  <g transform="translate(100 98)">
    <path d="M55 5 105 34v58l-50 29L5 92V34Z" fill="#07192e" stroke="#00e5ff" stroke-width="2"/>
    <path d="M31 46 51 66 31 86M61 86h28" fill="none" stroke="url(#neon)" stroke-width="8" stroke-linecap="round" stroke-linejoin="round"/>
  </g>
  <text x="260" y="142" fill="#8fa5ca" font-family="monospace" font-size="19">$ whoami</text>
  <text x="260" y="205" fill="#f4f7ff" font-family="Arial, sans-serif" font-size="57" font-weight="700" letter-spacing="2">HUZAIFA KHAN</text>
  <rect x="260" y="225" width="570" height="4" rx="2" fill="url(#neon)"/>
  <text x="260" y="272" fill="#00e5ff" font-family="monospace" font-size="23">AI / ML ENGINEER</text>
  <text x="260" y="308" fill="#b9c6e0" font-family="monospace" font-size="17">RAG • AGENTS • LLM EVALUATION • AUTOMATION</text>
  <g fill="none" stroke-width="2">
    <circle cx="1030" cy="190" r="84" stroke="#00e5ff" stroke-dasharray="8 8" opacity=".7"/>
    <circle cx="1030" cy="190" r="57" stroke="#b56cff" stroke-dasharray="4 9"/>
    <circle cx="1030" cy="190" r="28" stroke="#ff4dba"/>
    <path d="M930 190h200M1030 90v200" stroke="#7182aa" opacity=".25"/>
  </g>
  <circle cx="1030" cy="190" r="8" fill="#fff"/><circle cx="1030" cy="190" r="15" fill="#00e5ff" opacity=".35"/>
</svg>
